{"title":"I Am Number Four 2011 DVDrip English Klam","uid":6510491,"size":1495241144,"categoryP":"video","categoryS":"movies","magnet":"?xt=urn:btih:6120fc215be220a540f9eebfd2baef5e152d420c&amp;dn=I+Am+Number+Four+2011+DVDrip+English+Klam&amp;tr=udp%3A%2F%2Ftracker.openbittorrent.com%3A80&amp;tr=udp%3A%2F%2Fopen.demonii.com%3A1337&amp;tr=udp%3A%2F%2Ftracker.coppersurfer.tk%3A6969&amp;tr=udp%3A%2F%2Fexodus.desync.com%3A6969","seeders":1,"leechers":0,"uploader":"Klambake","files":-1,"time":1309601099,"description":"With: Alex Pettyfer, Timothy Olyphant and Teresa Palmer\n\nNegen buitenaardse baby's met menselijke kenmerken vluchten van hun thuis planeet Lorien om zich te verschuilen op Aarde. Ze worden gevolgd door de Mogadorians die hun eigen planeet vernietigd hebben om de baby's op te sporen. De baby's hebben allemaal een eigen lijfwacht en ze zullen superkrachten krijgen wanneer ze ouder worden. Ze hebben allemaal een nummer van ÃƒÂ©ÃƒÂ©n tot negen en kunnen ook alleen in die volgorde vermoord worden. Number Four (Alex Pettyfer), ook John Smith genaamd, verhuist naar Paradise, Ohio en wordt vrienden met de vriendelijke fotograaf Sarah. Na zijn hele leven op de vlucht te zijn geweest is Number Four verliefd geworden en heeft hij iets om voor te vechten.\n\nJohn is an extraordinary teen, masking his true identity and passing as a typical high school student to elude a deadly enemy seeking to destroy him. Three like him have already been killed ... he is Number Four. \n\n------------------ Dutch Friends ------------------\nYou can find my Friends at: http://www.Film-Test.nl \n------ They got my dutchs subs ---- and more ------\n\nGeneral:\n\nComplete name                    : I Am Number Four\\I Am Number Four.avi\nFormat                           : AVI\nFormat/Info                      : Audio Video Interleave\nFile size                        : 1.39 GiB\nDuration                         : 1h 45mn\nOverall bit rate                 : 1 888 Kbps\n\nVideo:\n\nFormat                           : MPEG-4 Visual\nFormat profile                   : Simple@L3\nFormat settings, BVOP            : No\nFormat settings, QPel            : No\nFormat settings, GMC             : No warppoints\nFormat settings, Matrix          : Default (H.263)\nCodec ID                         : XVID\nCodec ID/Hint                    : XviD\nDuration                         : 1h 45mn\nBit rate                         : 1 493 Kbps\nWidth                            : 652 pixels\nHeight                           : 352 pixels\nDisplay aspect ratio             : 1.852\nFrame rate                       : 25.000 fps\nColor space                      : YUV\nChroma subsampling               : 4:2:0\nBit depth                        : 8 bits\nScan type                        : Progressive\nBits/(Pixel*Frame)               : 0.260\nStream size                      : 1.10 GiB (79%)\nWriting library                  : XviD 1.1.2 (UTC 2006-11-01)\n\nAudio:\n\nFormat                           : AC-3\nFormat/Info                      : Audio Coding 3\nMode extension                   : CM (complete main)\nCodec ID                         : 2000\nDuration                         : 1h 45mn\nBit rate mode                    : Constant\nBit rate                         : 384 Kbps\nChannel(s)                       : 6 channels\nChannel positions                : Front: L C R, Side: L R, LFE\nSampling rate                    : 48.0 KHz\nBit depth                        : 16 bits\nStream size                      : 289 MiB (20%)\nAlignment                        : Aligned on interleaves\nInterleave, duration             : 32 ms (0.80 video frame)\nInterleave, preload duration     : 640 ms\n\n","torrent":{"xt":"urn:btih:6120fc215be220a540f9eebfd2baef5e152d420c","amp;dn":"I+Am+Number+Four+2011+DVDrip+English+Klam","amp;tr":["udp%3A%2F%2Ftracker.openbittorrent.com%3A80","udp%3A%2F%2Fopen.demonii.com%3A1337","udp%3A%2F%2Ftracker.coppersurfer.tk%3A6969","udp%3A%2F%2Fexodus.desync.com%3A6969"],"infoHash":"6120fc215be220a540f9eebfd2baef5e152d420c","infoHashBuffer":{"type":"Buffer","data":[97,32,252,33,91,226,32,165,64,249,238,191,210,186,239,94,21,45,66,12]},"announce":[],"urlList":[]}}